<svg width="25" height="25" viewBox="0 0 25 25" fill="none" xmlns="http://www.w3.org/2000/svg">
<path d="M12.5 25C19.4036 25 25 19.4036 25 12.5C25 5.59644 19.4036 0 12.5 0C5.59644 0 0 5.59644 0 12.5C0 19.4036 5.59644 25 12.5 25Z" fill="#A99260"/>
<path d="M20.1571 8.9834C19.6214 9.22093 19.0452 9.38158 18.4409 9.45333C19.0579 9.08367 19.5314 8.49875 19.7549 7.80064C19.1776 8.14312 18.5378 8.39157 17.8576 8.52549C17.3125 7.94503 16.536 7.58228 15.6761 7.58228C14.0263 7.58228 12.6883 8.92034 12.6883 10.5701C12.6883 10.8043 12.7148 11.0323 12.766 11.2511C10.2829 11.1265 8.08114 9.93708 6.60738 8.12886C6.35024 8.57006 6.20273 9.08367 6.20273 9.63115C6.20273 10.6675 6.7306 11.5824 7.53188 12.1181C7.04233 12.1027 6.58131 11.9684 6.17866 11.744C6.17844 11.7567 6.17844 11.7694 6.17844 11.7818C6.17844 13.2295 7.20878 14.437 8.57536 14.7113C8.32491 14.7799 8.06042 14.8163 7.78835 14.8163C7.59538 14.8163 7.40843 14.7978 7.22616 14.763C7.6063 15.9498 8.7095 16.8137 10.0173 16.838C8.9945 17.6395 7.70635 18.117 6.30612 18.117C6.06547 18.117 5.82705 18.1029 5.59375 18.0751C6.91532 18.9231 8.48623 19.4176 10.1735 19.4176C15.6692 19.4176 18.6747 14.8648 18.6747 10.9162C18.6747 10.7867 18.6718 10.6577 18.666 10.5298C19.2502 10.1087 19.7567 9.58257 20.1571 8.9834Z" fill="#F1F2F2"/>
</svg>
