<svg width="25" height="25" viewBox="0 0 25 25" fill="none" xmlns="http://www.w3.org/2000/svg">
<path d="M12.5 0C5.59635 0 0 5.59635 0 12.5C0 19.4036 5.59635 25 12.5 25C19.4036 25 25 19.4036 25 12.5C25 5.59635 19.4036 0 12.5 0ZM17.3073 14.1029C17.3073 14.1029 18.4128 15.194 18.6849 15.7005C18.6927 15.7109 18.6966 15.7214 18.6992 15.7266C18.8099 15.9128 18.8359 16.0573 18.7812 16.1654C18.6901 16.3451 18.3776 16.4336 18.2708 16.4414H16.3177C16.1823 16.4414 15.8984 16.4062 15.5547 16.1693C15.2904 15.9844 15.0299 15.681 14.776 15.3854C14.3971 14.9453 14.069 14.5651 13.7383 14.5651C13.6963 14.565 13.6545 14.5716 13.6146 14.5846C13.3646 14.6654 13.0443 15.0221 13.0443 15.9727C13.0443 16.2695 12.8099 16.4401 12.6445 16.4401H11.75C11.4453 16.4401 9.85807 16.3333 8.45182 14.8503C6.73047 13.0339 5.18099 9.39062 5.16797 9.35677C5.07031 9.12109 5.27213 8.99479 5.49219 8.99479H7.46484C7.72786 8.99479 7.8138 9.15495 7.8737 9.29687C7.94401 9.46224 8.20182 10.1198 8.625 10.8594C9.3112 12.0651 9.73177 12.5547 10.069 12.5547C10.1322 12.5539 10.1944 12.5379 10.25 12.5078C10.6901 12.263 10.6081 10.694 10.5885 10.3685C10.5885 10.3073 10.5872 9.66667 10.362 9.35937C10.2005 9.13672 9.92578 9.05208 9.75911 9.02083C9.82657 8.92775 9.91545 8.85227 10.0182 8.80078C10.3203 8.64974 10.8646 8.6276 11.4049 8.6276H11.7057C12.2917 8.63542 12.4427 8.67318 12.6549 8.72656C13.0846 8.82943 13.0938 9.10677 13.056 10.056C13.0443 10.3255 13.0326 10.6302 13.0326 10.9896C13.0326 11.0677 13.0286 11.151 13.0286 11.2396C13.0156 11.7227 13 12.2708 13.3411 12.4961C13.3856 12.524 13.4371 12.5389 13.4896 12.5391C13.6081 12.5391 13.9648 12.5391 14.931 10.8815C15.229 10.348 15.4879 9.79359 15.7057 9.22266C15.7253 9.1888 15.7826 9.08463 15.8503 9.04427C15.9002 9.0188 15.9556 9.00584 16.0117 9.00651H18.3307C18.5833 9.00651 18.7565 9.04427 18.7891 9.14193C18.8464 9.29687 18.7786 9.76953 17.7201 11.2031L17.2474 11.8268C16.2878 13.0846 16.2878 13.1484 17.3073 14.1029Z" fill="#A99260"/>
</svg>
